<?xml version="1.0" standalone="no"?>
<!DOCTYPE svg PUBLIC "-//W3C//DTD SVG 20010904//EN"
 "http://www.w3.org/TR/2001/REC-SVG-20010904/DTD/svg10.dtd">
<svg version="1.0" xmlns="http://www.w3.org/2000/svg"
 width="700.000000pt" height="700.000000pt" viewBox="0 0 700.000000 700.000000"
 preserveAspectRatio="xMidYMid meet">
<metadata>
Created by potrace 1.14, written by Peter Selinger 2001-2017
</metadata>
<g transform="translate(0.000000,700.000000) scale(0.100000,-0.100000)"
fill="#000000" stroke="none">
<path d="M2515 6195 c-296 -56 -530 -280 -601 -575 -15 -65 -19 -140 -23 -553
l-6 -478 -217 284 c-120 157 -232 297 -250 313 -90 75 -219 101 -334 66 -120
-37 -278 -170 -321 -270 -39 -92 -36 -218 7 -302 10 -20 159 -221 331 -446
172 -225 330 -433 351 -463 103 -147 115 -339 30 -495 -16 -28 -181 -250 -368
-492 -188 -243 -349 -461 -359 -485 -9 -24 -20 -74 -23 -111 -10 -136 38 -234
163 -334 124 -100 170 -119 285 -119 85 0 101 3 154 29 32 16 75 45 95 65 20
20 131 159 246 310 l210 273 6 -479 c6 -535 8 -558 78 -708 92 -196 271 -346
487 -406 112 -32 278 -32 388 -1 111 32 145 50 612 334 230 140 932 567 1559
948 627 381 1165 710 1196 731 142 96 270 277 321 455 32 114 33 316 0 428
-52 179 -179 359 -321 455 -31 21 -569 350 -1196 731 -627 381 -1329 808
-1559 948 -231 140 -444 267 -475 282 -150 73 -306 95 -466 65z"/>
</g>
</svg>
